<svg version="1.1" id="Layer_1" xmlns="http://www.w3.org/2000/svg" xmlns:xlink="http://www.w3.org/1999/xlink" x="0px" y="0px"
	 width="100%" viewBox="0 0 2611 238" enable-background="new 0 0 2611 238" xml:space="preserve">
<path fill="#FFFFFF" opacity="1.000000" stroke="none" 
	d="
M2612.000000,83.000000 
	C2612.000000,134.943573 2612.000000,186.887131 2612.000000,239.000000 
	C2535.306641,239.000000 2458.613037,239.000000 2381.616211,238.599121 
	C2384.715088,237.800354 2388.156982,237.610565 2391.512939,236.969666 
	C2409.089600,233.612946 2424.221924,226.042999 2436.302490,212.346954 
	C2451.223145,195.430801 2457.148193,175.217316 2457.706299,153.501648 
	C2458.012939,141.569138 2456.729248,129.194138 2453.713135,117.659119 
	C2446.805664,91.240425 2430.357422,72.450211 2404.263672,63.038158 
	C2388.437988,57.329815 2372.237549,56.658417 2355.689697,59.913147 
	C2334.928223,63.996716 2318.758545,74.688705 2306.548828,91.859406 
	C2296.474121,106.027679 2292.487549,122.247269 2291.175293,139.040298 
	C2289.820068,156.386673 2291.740723,173.375351 2298.816650,189.797119 
	C2309.248291,214.006699 2326.927246,229.213791 2352.135986,235.944992 
	C2357.325928,237.330780 2362.707031,238.000320 2368.000000,239.000000 
	C2255.973145,239.000000 2143.946289,239.000000 2031.612671,238.601639 
	C2036.283936,237.468475 2041.358032,237.125549 2046.223389,235.931671 
	C2068.643799,230.430145 2085.658936,217.802292 2096.412842,197.126297 
	C2105.300049,180.039856 2108.188965,161.908798 2107.163086,142.747162 
	C2106.513428,130.617157 2104.609619,119.015625 2100.065674,107.730537 
	C2093.057617,90.325996 2081.714844,76.836769 2065.103027,68.043892 
	C2048.709229,59.366447 2031.358887,56.736359 2012.819702,58.802189 
	C1996.870117,60.579475 1982.719116,65.968315 1970.575928,76.088074 
	C1951.498779,91.986328 1942.981201,113.401077 1941.176392,137.541931 
	C1940.441406,147.371597 1940.939209,157.437958 1942.155640,167.237808 
	C1944.442017,185.657654 1952.063354,202.088837 1965.069092,215.305099 
	C1976.589111,227.011719 1990.693726,234.719299 2007.330933,237.033401 
	C2010.582153,237.485641 2013.778442,238.334229 2017.000000,239.000000 
	C1644.306519,239.000000 1271.612915,239.000000 898.615845,238.599289 
	C905.165039,237.010223 912.392456,236.832169 918.803833,234.454056 
	C943.175354,225.414200 957.270691,207.152176 963.201599,182.239487 
	C963.413574,181.348953 962.293823,179.355957 961.451355,179.123962 
	C954.643738,177.249542 947.753784,175.674057 940.374573,173.882446 
	C939.918701,175.332016 939.404053,176.780060 939.007385,178.259720 
	C936.239929,188.582779 931.765564,198.333542 923.839111,205.351028 
	C910.971313,216.743149 895.359375,220.569061 878.510803,216.881378 
	C865.449768,214.022690 854.328186,207.717117 846.556274,196.181641 
	C837.199829,182.294540 834.601624,166.493744 834.288147,150.478485 
	C834.086975,140.199753 835.819763,129.668900 838.162048,119.594322 
	C845.550537,87.814774 876.181213,73.032249 905.894775,80.962029 
	C923.475586,85.653900 931.946228,98.799706 937.614319,115.262634 
	C945.414062,113.410614 953.262634,111.547005 962.040833,109.462654 
	C958.828430,102.657570 956.223267,96.450035 953.044861,90.551346 
	C946.742554,78.854935 937.161499,70.498253 925.158142,65.021591 
	C908.788147,57.552563 891.771423,56.491833 874.200378,59.946842 
	C843.760010,65.932343 823.770813,83.924706 814.199707,112.988182 
	C808.703247,129.678452 808.995850,147.143951 810.926758,164.584183 
	C812.867188,182.110519 818.430542,198.309738 829.168762,212.184906 
	C838.735779,224.546692 851.190186,233.270065 867.105530,236.006836 
	C872.741943,236.976074 878.368774,238.000671 884.000000,239.000000 
	C716.639771,239.000000 549.279602,239.000000 381.459412,238.531342 
	C380.999390,217.292587 381.020569,196.522461 380.993927,175.752396 
	C380.961121,150.167694 380.888458,124.583015 380.905212,98.534912 
	C380.929230,91.713715 380.880981,85.355942 380.905212,78.539917 
	C380.929474,74.053917 380.881226,70.026161 380.905518,65.553040 
	C380.929535,62.404324 380.881042,59.700977 380.905212,56.558067 
	C380.929474,53.744991 380.881104,51.371471 380.905792,48.573860 
	C380.930054,46.432430 380.881287,44.715092 380.906128,42.573746 
	C380.930603,40.431900 380.881470,38.714054 380.905884,36.582054 
	C380.688995,34.096859 380.398529,32.025822 380.058899,29.566814 
	C380.283752,27.451530 380.557739,25.724215 380.908844,23.586193 
	C380.935181,21.788248 380.884430,20.401007 380.908112,18.637253 
	C380.670013,17.136656 380.357452,16.012571 380.034729,14.471058 
	C380.293518,10.055676 380.562378,6.057721 380.906311,1.800060 
	C380.987579,1.360236 380.993805,1.180118 381.000000,1.000000 
	C1124.666626,1.000000 1868.333374,1.000000 2612.000000,1.000000 
	C2612.000000,20.754463 2612.000000,40.417526 2611.531250,60.540295 
	C2565.128174,61.000000 2519.193848,61.000000 2473.270020,61.000000 
	C2473.270020,68.607018 2473.270020,75.679482 2473.270020,83.147331 
	C2492.612061,83.147331 2511.687012,83.147331 2531.154785,83.147331 
	C2531.154785,134.285950 2531.154785,185.024918 2531.154785,235.718292 
	C2539.297607,235.718292 2547.037842,235.718292 2555.169922,235.718292 
	C2555.169922,184.698837 2555.169922,133.959869 2555.169922,83.000000 
	C2574.379395,83.000000 2593.189697,83.000000 2612.000000,83.000000 
M1240.000000,177.496353 
	C1239.671021,176.592850 1239.320923,175.696426 1239.016113,174.784836 
	C1226.716675,137.992676 1214.435669,101.194328 1202.067017,64.425415 
	C1201.633911,63.137779 1200.355591,61.174801 1199.437744,61.155994 
	C1188.351685,60.928844 1177.259521,61.008854 1166.295044,61.008854 
	C1166.295044,119.675255 1166.295044,177.736557 1166.295044,235.702652 
	C1173.999634,235.702652 1181.405518,235.702652 1189.176025,235.702652 
	C1189.176025,188.131271 1189.176025,140.856186 1189.176025,92.097641 
	C1199.121948,121.424294 1208.560669,149.309586 1218.038208,177.181610 
	C1224.332397,195.691666 1230.711670,214.172882 1236.969727,232.695053 
	C1237.731323,234.949341 1238.593262,236.187241 1241.327637,236.075577 
	C1247.309570,235.831314 1253.308350,235.999954 1259.593872,235.999954 
	C1275.877808,189.117462 1292.151001,142.265579 1308.424316,95.413689 
	C1308.697754,95.468086 1308.971191,95.522476 1309.244629,95.576866 
	C1309.244629,142.321487 1309.244629,189.066116 1309.244629,235.697052 
	C1317.010864,235.697052 1324.417114,235.697052 1331.708740,235.697052 
	C1331.708740,177.332382 1331.708740,119.271103 1331.708740,61.105568 
	C1321.119629,61.105568 1310.821655,61.105568 1300.332886,61.105568 
	C1283.687744,109.645615 1267.053955,158.152481 1250.143921,207.464920 
	C1246.620239,197.302658 1243.328613,187.809738 1240.000000,177.496353 
M2258.518311,158.010605 
	C2252.962891,150.168076 2244.924316,145.910797 2236.114746,142.646698 
	C2251.076904,135.142456 2262.340088,116.570335 2258.099121,97.873169 
	C2255.157959,84.906319 2248.358154,75.133217 2236.966309,68.469002 
	C2227.300293,62.814129 2216.478271,61.597832 2205.667969,61.111305 
	C2194.532715,60.610142 2183.357178,61.000000 2172.199219,61.000000 
	C2159.923584,61.000000 2147.647705,61.000000 2135.341553,61.000000 
	C2135.341553,119.575127 2135.341553,177.732681 2135.341553,235.857162 
	C2136.008545,235.925873 2136.334473,235.988647 2136.660400,235.988800 
	C2152.814453,235.995911 2168.973877,236.253830 2185.120850,235.919800 
	C2198.281006,235.647552 2211.510498,235.366348 2224.553467,233.795349 
	C2236.665283,232.336502 2247.556396,227.735321 2255.939209,217.769684 
	C2268.385010,202.973572 2271.879639,174.774963 2258.518311,158.010605 
M1625.468506,209.973511 
	C1630.639648,217.582199 1635.737061,225.243027 1641.048218,232.752655 
	C1642.034546,234.147339 1643.845581,235.790970 1645.338501,235.854706 
	C1652.771484,236.171921 1660.225464,235.999603 1667.777100,235.999603 
	C1667.777100,177.477737 1667.777100,119.412514 1667.777100,61.226078 
	C1659.814941,61.226078 1652.077148,61.226078 1643.957275,61.226078 
	C1643.957275,105.475037 1643.957275,149.499908 1643.957275,193.670456 
	C1643.299805,193.422180 1642.905518,193.401688 1642.772461,193.204697 
	C1629.509644,173.561966 1616.193726,153.954453 1603.041138,134.238083 
	C1587.487061,110.921593 1572.087646,87.501839 1556.565186,64.164017 
	C1555.747192,62.933891 1554.437500,61.184349 1553.306030,61.145428 
	C1545.566162,60.879189 1537.812744,61.005817 1530.349121,61.005817 
	C1530.349121,119.775276 1530.349121,177.841202 1530.349121,235.647736 
	C1538.110107,235.647736 1545.519531,235.647736 1553.342163,235.647736 
	C1553.342163,190.993332 1553.342163,146.690628 1553.342163,101.351006 
	C1577.646851,137.970535 1601.339722,173.668350 1625.468506,209.973511 
M1827.500000,61.000000 
	C1809.408569,61.000000 1791.317139,61.000000 1773.260010,61.000000 
	C1773.260010,119.617378 1773.260010,177.672409 1773.260010,235.738922 
	C1781.259644,235.738922 1788.995972,235.738922 1797.118652,235.738922 
	C1797.118652,210.080261 1797.118652,184.679993 1797.118652,159.001038 
	C1809.304443,159.001038 1821.104980,158.866745 1832.897949,159.105011 
	C1835.516602,159.157913 1838.224854,160.257339 1840.693115,161.331726 
	C1852.084961,166.290543 1858.385620,176.492462 1864.887695,186.118332 
	C1875.329346,201.576462 1885.000977,217.553894 1895.082397,233.257614 
	C1895.812256,234.394638 1897.213135,235.847824 1898.329834,235.872208 
	C1907.850586,236.080078 1917.377808,235.991226 1927.436646,235.991226 
	C1919.767578,223.769821 1912.946655,212.112732 1905.339966,200.993210 
	C1897.305542,189.248383 1888.874023,177.729233 1879.889648,166.703308 
	C1876.380005,162.396317 1870.892456,159.701187 1866.495972,156.414093 
	C1870.076172,155.614563 1873.763916,155.034317 1877.300537,153.957809 
	C1890.554199,149.923370 1901.828491,143.284698 1908.006104,130.074188 
	C1913.761719,117.766464 1914.177246,105.082253 1909.901733,92.433960 
	C1905.329468,78.907516 1897.098999,68.342552 1882.414062,64.952110 
	C1874.237183,63.064266 1865.843262,61.711140 1857.478027,61.149841 
	C1847.858521,60.504402 1838.162720,61.000000 1827.500000,61.000000 
M685.500000,236.000000 
	C718.592346,236.000000 751.684631,236.000000 784.713135,236.000000 
	C784.713135,228.356750 784.713135,221.283569 784.713135,213.824173 
	C749.357910,213.824173 714.287842,213.824173 679.287109,213.824173 
	C679.287109,194.356766 679.287109,175.286285 679.287109,155.823242 
	C711.309631,155.823242 743.046875,155.823242 774.710266,155.823242 
	C774.710266,148.684113 774.710266,141.944107 774.710266,134.817932 
	C742.685059,134.817932 710.947815,134.817932 679.290771,134.817932 
	C679.290771,117.349472 679.290771,100.278610 679.290771,82.816132 
	C713.316895,82.816132 747.053772,82.816132 780.706909,82.816132 
	C780.706909,75.343880 780.706909,68.270454 780.706909,61.290894 
	C738.678772,61.290894 696.944397,61.290894 655.286133,61.290894 
	C655.286133,119.648102 655.286133,177.713974 655.286133,236.000000 
	C665.213806,236.000000 674.856873,236.000000 685.500000,236.000000 
M1052.500000,154.000000 
	C1069.928101,154.000000 1087.356079,154.000000 1105.174438,154.000000 
	C1105.174438,181.640533 1105.174438,208.711716 1105.174438,235.711426 
	C1113.313354,235.711426 1121.052856,235.711426 1128.717041,235.711426 
	C1128.717041,177.357086 1128.717041,119.291740 1128.717041,61.286079 
	C1120.691650,61.286079 1112.952271,61.286079 1104.824219,61.286079 
	C1104.824219,84.975105 1104.824219,108.380379 1104.824219,131.714172 
	C1075.023926,131.714172 1045.621826,131.714172 1015.824707,131.714172 
	C1015.824707,108.025406 1015.824707,84.620125 1015.824707,61.289280 
	C1007.685120,61.289280 999.945618,61.289280 992.283691,61.289280 
	C992.283691,119.644356 992.283691,177.709717 992.283691,235.713196 
	C1000.309753,235.713196 1008.049133,235.713196 1016.176575,235.713196 
	C1016.176575,208.357269 1016.176575,181.286072 1016.176575,154.000000 
	C1028.214600,154.000000 1039.857300,154.000000 1052.500000,154.000000 
M1386.035767,203.689102 
	C1388.032104,198.110764 1390.010010,192.525681 1392.033691,186.957230 
	C1392.906738,184.555084 1393.964600,182.880798 1397.228882,182.907913 
	C1418.717407,183.086441 1440.208618,182.935364 1461.696777,183.130234 
	C1463.310303,183.144867 1465.813232,184.654587 1466.373169,186.073044 
	C1472.889282,202.580307 1479.111328,219.203720 1485.413696,235.802643 
	C1494.565796,235.802643 1503.666626,235.802643 1513.155884,235.802643 
	C1506.699829,220.133011 1500.334839,204.782181 1494.047729,189.399490 
	C1486.657715,171.317856 1479.374146,153.192749 1471.973389,135.115509 
	C1463.356689,114.068123 1453.908813,93.318665 1446.343384,71.902344 
	C1442.918945,62.208118 1437.963379,59.547421 1428.797485,60.923004 
	C1424.589111,61.554588 1419.391846,59.981541 1416.244019,61.958084 
	C1413.547119,63.651546 1413.138428,68.982285 1411.697754,72.696564 
	C1411.582031,72.994873 1411.234131,73.203583 1411.120361,73.502068 
	C1402.395630,96.386955 1393.720459,119.290894 1384.959229,142.161774 
	C1376.998535,162.943512 1368.949585,183.691544 1360.930420,204.450836 
	C1356.919312,214.834198 1352.887939,225.209702 1348.750854,235.885284 
	C1357.668701,235.885284 1365.981445,235.885284 1374.577393,235.885284 
	C1378.367188,225.472382 1382.183594,214.986206 1386.035767,203.689102 
M551.000000,93.523079 
	C551.000000,140.944992 551.000000,188.366898 551.000000,235.706787 
	C559.322754,235.706787 567.062378,235.706787 575.186279,235.706787 
	C575.186279,184.680023 575.186279,133.945404 575.186279,82.815475 
	C594.317017,82.815475 613.057312,82.815475 631.705261,82.815475 
	C631.705261,75.340584 631.705261,68.267082 631.705261,61.292084 
	C585.342529,61.292084 539.275085,61.292084 493.295410,61.292084 
	C493.295410,68.660858 493.295410,75.734406 493.295410,83.195610 
	C512.661499,83.195610 531.734924,83.195610 551.000000,83.195610 
	C551.000000,86.572739 551.000000,89.553185 551.000000,93.523079 
z"/>
<path fill="#FFFFFF" opacity="1.000000" stroke="none" 
	d="
M92.000000,239.000000 
	C61.707535,239.000000 31.415073,239.000000 1.000000,239.000000 
	C1.000000,161.312485 1.000000,83.624901 1.349258,5.615968 
	C7.598695,23.140171 13.498873,40.985722 19.335655,58.639523 
	C19.779676,58.816994 19.933582,58.932236 20.087690,58.932503 
	C49.374752,58.983601 78.661827,59.026546 107.881950,59.385704 
	C107.599571,60.463943 107.384140,61.226254 107.090790,62.359203 
	C107.064911,63.482327 107.116951,64.234810 107.093948,65.318542 
	C107.066818,66.097618 107.114731,66.545456 107.088409,67.364120 
	C107.065056,68.486710 107.115936,69.238472 107.013084,70.318672 
	C106.628632,71.761353 106.397911,72.875587 106.092545,74.385849 
	C106.066994,75.852470 106.116089,76.923073 106.091583,78.378616 
	C105.993073,79.808098 105.968185,80.852646 105.591919,82.114693 
	C105.215744,84.553444 105.190956,86.774681 105.093323,89.415939 
	C104.735939,93.223061 104.451393,96.610168 104.094772,100.424927 
	C103.681274,104.929131 103.338097,109.005524 102.998901,113.082253 
	C102.645020,117.335533 102.355453,121.595161 101.931900,125.841454 
	C100.648842,138.705017 99.211555,151.554031 98.034622,164.427032 
	C97.182274,173.749863 96.718613,183.107529 95.957260,192.439514 
	C94.690681,207.963959 93.324333,223.480270 92.000000,239.000000 
z"/>
<path fill="#000000" opacity="1.000000" stroke="none" 
	d="
M2368.463135,239.000000 
	C2362.707031,238.000320 2357.325928,237.330780 2352.135986,235.944992 
	C2326.927246,229.213791 2309.248291,214.006699 2298.816650,189.797119 
	C2291.740723,173.375351 2289.820068,156.386673 2291.175293,139.040298 
	C2292.487549,122.247269 2296.474121,106.027679 2306.548828,91.859406 
	C2318.758545,74.688705 2334.928223,63.996716 2355.689697,59.913147 
	C2372.237549,56.658417 2388.437988,57.329815 2404.263672,63.038158 
	C2430.357422,72.450211 2446.805664,91.240425 2453.713135,117.659119 
	C2456.729248,129.194138 2458.012939,141.569138 2457.706299,153.501648 
	C2457.148193,175.217316 2451.223145,195.430801 2436.302490,212.346954 
	C2424.221924,226.042999 2409.089600,233.612946 2391.512939,236.969666 
	C2388.156982,237.610565 2384.715088,237.800354 2381.156250,238.599121 
	C2376.975342,239.000000 2372.950928,239.000000 2368.463135,239.000000 
M2427.605225,181.916443 
	C2432.300781,169.150620 2433.671387,155.924164 2432.973389,142.432770 
	C2432.822021,139.510681 2432.369385,136.601410 2431.993896,133.694199 
	C2430.177979,119.632576 2425.661377,106.502380 2415.605225,96.311020 
	C2401.627686,82.145653 2384.531006,76.388908 2364.588379,79.968430 
	C2341.921143,84.036934 2326.709961,96.581535 2319.685059,118.734879 
	C2316.012451,130.318146 2315.918213,142.220673 2315.932373,154.204910 
	C2315.946533,166.101151 2318.332520,177.223053 2323.924561,187.818085 
	C2336.907959,212.418335 2362.875977,222.292740 2387.785645,216.533356 
	C2406.608643,212.181335 2419.803223,200.577042 2427.605225,181.916443 
z"/>
<path fill="#000000" opacity="1.000000" stroke="none" 
	d="
M2017.464600,239.000000 
	C2013.778442,238.334229 2010.582153,237.485641 2007.330933,237.033401 
	C1990.693726,234.719299 1976.589111,227.011719 1965.069092,215.305099 
	C1952.063354,202.088837 1944.442017,185.657654 1942.155640,167.237808 
	C1940.939209,157.437958 1940.441406,147.371597 1941.176392,137.541931 
	C1942.981201,113.401077 1951.498779,91.986328 1970.575928,76.088074 
	C1982.719116,65.968315 1996.870117,60.579475 2012.819702,58.802189 
	C2031.358887,56.736359 2048.709229,59.366447 2065.103027,68.043892 
	C2081.714844,76.836769 2093.057617,90.325996 2100.065674,107.730537 
	C2104.609619,119.015625 2106.513428,130.617157 2107.163086,142.747162 
	C2108.188965,161.908798 2105.300049,180.039856 2096.412842,197.126297 
	C2085.658936,217.802292 2068.643799,230.430145 2046.223389,235.931671 
	C2041.358032,237.125549 2036.283936,237.468475 2031.152954,238.601639 
	C2026.643066,239.000000 2022.286255,239.000000 2017.464600,239.000000 
M2083.000000,148.514862 
	C2082.333984,142.358765 2081.936768,136.159180 2080.948975,130.055130 
	C2078.513184,115.004959 2072.486328,101.833992 2060.416016,91.871292 
	C2044.925049,79.085266 2027.329712,76.097588 2008.356323,81.103363 
	C1992.805908,85.205994 1980.569946,94.318092 1973.143555,108.763138 
	C1966.964966,120.781143 1965.638306,134.142761 1965.167725,147.390121 
	C1964.902954,154.843094 1965.712769,162.475616 1967.123169,169.818924 
	C1970.640137,188.130890 1980.492188,202.368317 1996.962036,211.354843 
	C2008.372070,217.580643 2020.629517,219.198563 2033.687988,217.148148 
	C2049.288330,214.698608 2060.935303,206.727493 2070.191406,194.416321 
	C2080.237305,181.054688 2082.260254,165.466125 2083.000000,148.514862 
z"/>
<path fill="#74B42A" opacity="1.000000" stroke="none" 
	d="
M107.948898,59.069775 
	C78.661827,59.026546 49.374752,58.983601 20.087690,58.932503 
	C19.933582,58.932236 19.779676,58.816994 19.335655,58.639523 
	C13.498873,40.985722 7.598695,23.140171 1.349258,5.147311 
	C1.000000,3.669546 1.000000,2.339092 1.000000,1.004319 
	C67.020897,1.000000 133.041794,1.000000 199.534882,1.214293 
	C200.007095,1.428585 200.045273,1.855525 199.739014,2.062692 
	C195.255814,12.835048 191.078873,23.400236 186.609558,34.174110 
	C183.151672,42.544907 179.986191,50.707016 176.363678,58.884056 
	C153.254059,58.955921 130.601486,59.012848 107.948898,59.069775 
z"/>
<path fill="#006389" opacity="1.000000" stroke="none" 
	d="
M290.000000,239.000000 
	C268.312439,239.000000 246.624878,239.000000 224.460907,238.599518 
	C219.656845,222.164459 215.305161,206.136322 211.007690,190.093658 
	C205.830551,170.767105 200.653336,151.440338 195.563339,132.090744 
	C191.624008,117.115372 187.818726,102.104729 184.100159,86.795609 
	C185.167145,85.309891 186.255493,84.233406 186.982162,82.951820 
	C193.116638,72.132889 199.073776,61.211750 205.327698,50.462990 
	C207.850754,46.126575 210.979721,42.142700 213.995483,38.335197 
	C222.119202,59.467640 230.052887,80.273834 238.051285,101.055122 
	C243.298065,114.687210 248.638351,128.283295 253.956421,142.290726 
	C254.667374,145.126266 255.358673,147.566574 256.178802,150.338104 
	C257.527130,153.449661 258.746643,156.230026 259.983582,159.389191 
	C261.305634,162.855286 262.610229,165.942581 263.944794,169.401794 
	C264.966553,172.178665 265.958344,174.583618 266.967255,177.368835 
	C267.963806,180.170990 268.943237,182.592896 269.947021,185.400055 
	C271.291016,189.193680 272.610687,192.602066 273.985779,196.384857 
	C275.713745,201.176315 277.386292,205.593399 279.076691,210.379700 
	C280.075592,213.391953 280.968018,216.072067 282.055359,218.670609 
	C284.654297,224.881439 287.345062,231.053848 290.014313,237.534622 
	C290.019928,238.218307 290.009949,238.609146 290.000000,239.000000 
z"/>
<path fill="#006388" opacity="1.000000" stroke="none" 
	d="
M380.531342,1.000000 
	C380.993805,1.180118 380.987579,1.360236 380.646393,2.029740 
	C376.904968,11.676545 373.498566,20.833963 369.990417,30.341339 
	C367.641907,36.122837 365.395050,41.554379 363.091339,47.316738 
	C363.011108,48.094131 362.987762,48.540707 362.794189,49.290863 
	C362.289185,50.697594 361.954407,51.800743 361.365173,53.135574 
	C358.432129,60.241871 355.753571,67.116486 352.989685,74.346458 
	C349.626495,83.131508 346.348663,91.561195 342.987366,100.347534 
	C340.542969,107.131462 338.181976,113.558739 335.566772,120.207352 
	C333.190338,126.290817 331.068146,132.152939 328.795715,138.306427 
	C328.401550,139.426880 328.157593,140.255997 327.566345,141.213287 
	C324.757080,147.561340 322.295105,153.781219 319.504883,159.939667 
	C318.061951,158.474106 316.821014,157.151672 315.851624,155.653519 
	C302.451080,134.943390 289.121185,114.187386 275.656738,93.519005 
	C274.487640,91.724388 272.491425,90.468590 270.931763,88.564713 
	C273.634186,79.557594 276.268127,70.943253 278.937622,62.339954 
	C285.282776,41.890518 291.644775,21.446314 298.000000,0.999997 
	C325.354218,1.000000 352.708466,1.000000 380.531342,1.000000 
z"/>
<path fill="#000000" opacity="1.000000" stroke="none" 
	d="
M884.464661,239.000000 
	C878.368774,238.000671 872.741943,236.976074 867.105530,236.006836 
	C851.190186,233.270065 838.735779,224.546692 829.168762,212.184906 
	C818.430542,198.309738 812.867188,182.110519 810.926758,164.584183 
	C808.995850,147.143951 808.703247,129.678452 814.199707,112.988182 
	C823.770813,83.924706 843.760010,65.932343 874.200378,59.946842 
	C891.771423,56.491833 908.788147,57.552563 925.158142,65.021591 
	C937.161499,70.498253 946.742554,78.854935 953.044861,90.551346 
	C956.223267,96.450035 958.828430,102.657570 962.040833,109.462654 
	C953.262634,111.547005 945.414062,113.410614 937.614319,115.262634 
	C931.946228,98.799706 923.475586,85.653900 905.894775,80.962029 
	C876.181213,73.032249 845.550537,87.814774 838.162048,119.594322 
	C835.819763,129.668900 834.086975,140.199753 834.288147,150.478485 
	C834.601624,166.493744 837.199829,182.294540 846.556274,196.181641 
	C854.328186,207.717117 865.449768,214.022690 878.510803,216.881378 
	C895.359375,220.569061 910.971313,216.743149 923.839111,205.351028 
	C931.765564,198.333542 936.239929,188.582779 939.007385,178.259720 
	C939.404053,176.780060 939.918701,175.332016 940.374573,173.882446 
	C947.753784,175.674057 954.643738,177.249542 961.451355,179.123962 
	C962.293823,179.355957 963.413574,181.348953 963.201599,182.239487 
	C957.270691,207.152176 943.175354,225.414200 918.803833,234.454056 
	C912.392456,236.832169 905.165039,237.010223 898.156128,238.599289 
	C893.643127,239.000000 889.286194,239.000000 884.464661,239.000000 
z"/>
<path fill="#74B42A" opacity="1.000000" stroke="none" 
	d="
M92.468658,239.000000 
	C93.324333,223.480270 94.690681,207.963959 95.957260,192.439514 
	C96.718613,183.107529 97.182274,173.749863 98.034622,164.427032 
	C99.211555,151.554031 100.648842,138.705017 101.931900,125.841454 
	C102.355453,121.595161 102.645020,117.335533 102.998901,113.082253 
	C103.338097,109.005524 103.681274,104.929131 104.552338,100.425797 
	C126.999046,99.998428 148.916107,99.997856 170.903595,100.413826 
	C169.652679,108.850845 168.208969,116.853455 167.034500,124.895393 
	C164.276886,143.777390 161.752197,162.693741 158.937988,181.567078 
	C156.080643,200.729584 152.989014,219.857132 150.000000,239.000000 
	C130.979111,239.000000 111.958214,239.000000 92.468658,239.000000 
z"/>
<path fill="#FFFFFF" opacity="1.000000" stroke="none" 
	d="
M297.531311,0.999997 
	C291.644775,21.446314 285.282776,41.890518 278.937622,62.339954 
	C276.268127,70.943253 273.634186,79.557594 270.599548,88.749161 
	C268.438812,95.539619 266.662659,101.747841 264.551331,108.141922 
	C263.199524,112.219627 262.182953,116.111465 260.993591,120.355835 
	C259.936066,123.426521 259.051331,126.144691 258.091431,129.193909 
	C257.399445,131.684387 256.782654,133.843826 256.018127,136.325455 
	C255.564270,137.729248 255.258163,138.810852 254.664673,140.011307 
	C254.230453,140.718613 254.083603,141.307053 253.936768,141.895493 
	C248.638351,128.283295 243.298065,114.687210 238.051285,101.055122 
	C230.052887,80.273834 222.119202,59.467640 214.062714,37.958824 
	C212.327469,33.460808 210.687531,29.675980 209.025345,25.519518 
	C208.371948,23.416914 207.740814,21.685947 207.056229,19.598679 
	C206.372345,17.813465 205.741928,16.384554 205.060974,14.592552 
	C204.356567,12.782621 203.702682,11.335778 203.026459,9.510727 
	C202.017838,6.706854 201.031555,4.281188 200.045273,1.855524 
	C200.045273,1.855525 200.007095,1.428585 200.003540,1.214293 
	C232.354233,1.000000 264.708466,1.000000 297.531311,0.999997 
z"/>
<path fill="#000000" opacity="1.000000" stroke="none" 
	d="
M2612.000000,82.531418 
	C2593.189697,83.000000 2574.379395,83.000000 2555.169922,83.000000 
	C2555.169922,133.959869 2555.169922,184.698837 2555.169922,235.718292 
	C2547.037842,235.718292 2539.297607,235.718292 2531.154785,235.718292 
	C2531.154785,185.024918 2531.154785,134.285950 2531.154785,83.147331 
	C2511.687012,83.147331 2492.612061,83.147331 2473.270020,83.147331 
	C2473.270020,75.679482 2473.270020,68.607018 2473.270020,61.000000 
	C2519.193848,61.000000 2565.128174,61.000000 2611.531250,61.000000 
	C2612.000000,68.020950 2612.000000,75.041893 2612.000000,82.531418 
z"/>
<path fill="#FFFFFF" opacity="1.000000" stroke="none" 
	d="
M150.468658,239.000000 
	C152.989014,219.857132 156.080643,200.729584 158.937988,181.567078 
	C161.752197,162.693741 164.276886,143.777390 167.034500,124.895393 
	C168.208969,116.853455 169.652679,108.850845 170.973816,100.000381 
	C171.354935,96.126488 171.736267,93.082573 172.456360,89.817734 
	C172.903458,87.411629 173.011810,85.226448 173.450684,82.838455 
	C173.799377,81.088043 173.817566,79.540443 173.992645,77.664299 
	C174.377258,76.220375 174.604980,75.104996 174.903900,73.599518 
	C175.023239,72.154839 175.071396,71.100258 175.430573,69.887848 
	C175.773529,68.817802 175.805450,67.905579 175.908447,66.661209 
	C175.930008,65.881783 175.880493,65.434502 175.906357,64.685684 
	C176.289902,63.942196 176.598053,63.500244 177.031311,63.365913 
	C177.492966,64.448143 177.829514,65.222755 178.095139,66.361687 
	C178.738373,68.873962 179.452560,71.021912 180.116669,73.607430 
	C181.362350,78.399925 182.658096,82.754845 183.953857,87.109772 
	C187.818726,102.104729 191.624008,117.115372 195.563339,132.090744 
	C200.653336,151.440338 205.830551,170.767105 211.007690,190.093658 
	C215.305161,206.136322 219.656845,222.164459 223.992249,238.599518 
	C199.645767,239.000000 175.291550,239.000000 150.468658,239.000000 
z"/>
<path fill="#006388" opacity="1.000000" stroke="none" 
	d="
M380.833008,98.998322 
	C380.888458,124.583015 380.961121,150.167694 380.993927,175.752396 
	C381.020569,196.522461 380.999390,217.292587 380.999695,238.531342 
	C364.312439,239.000000 347.624878,239.000000 330.468933,238.531342 
	C329.722534,226.707504 329.444489,215.352310 329.500061,203.933914 
	C333.356873,196.974991 337.088104,190.176300 340.359131,183.162964 
	C346.806732,169.338715 352.968414,155.381393 359.306030,141.505463 
	C365.301819,128.377914 371.325958,115.262672 377.479126,102.208733 
	C378.095093,100.901970 379.691589,100.057404 380.833008,98.998322 
z"/>
<path fill="#FFFFFF" opacity="1.000000" stroke="none" 
	d="
M329.166504,203.997131 
	C329.444489,215.352310 329.722534,226.707504 330.000305,238.531342 
	C316.979095,239.000000 303.958221,239.000000 290.468628,239.000000 
	C290.009949,238.609146 290.019928,238.218307 290.354858,237.329559 
	C291.756256,233.657532 292.832672,230.483414 294.184021,227.154846 
	C294.677216,226.014450 294.895447,225.028519 295.394257,223.936646 
	C295.798706,223.256973 295.922577,222.683243 296.365601,221.958344 
	C296.825470,220.887314 296.966125,219.967422 297.423553,218.898254 
	C297.880585,217.833420 298.020844,216.917877 298.166077,215.982468 
	C298.171051,215.962585 298.212311,215.966354 298.545593,215.763702 
	C299.196930,214.374084 299.514984,213.187103 299.968262,211.694183 
	C300.440796,210.605545 300.778137,209.822861 301.438202,208.879974 
	C302.118286,207.146851 302.475647,205.573944 302.988464,203.670380 
	C303.798859,201.575592 304.453796,199.811447 305.437622,197.879776 
	C306.788147,194.949387 307.809753,192.186523 308.927551,189.088150 
	C310.141602,185.795212 311.259430,182.837799 312.653687,179.594177 
	C315.231110,172.872345 317.532104,166.436722 319.833130,160.001099 
	C322.295105,153.781219 324.757080,147.561340 327.604767,141.623505 
	C328.049103,143.269470 328.107727,144.633392 328.091125,146.364655 
	C328.306488,147.837265 328.597076,148.942520 328.936920,150.458817 
	C329.046021,152.245499 329.105865,153.621140 329.090515,155.435974 
	C329.065643,158.248917 329.115967,160.622665 329.091003,163.441406 
	C329.065918,166.589828 329.116119,169.293289 329.091370,172.452301 
	C329.066437,176.604248 329.116455,180.300629 329.091614,184.460266 
	C329.066681,191.281403 329.116577,197.639267 329.166504,203.997131 
z"/>
<path fill="#000000" opacity="1.000000" stroke="none" 
	d="
M1240.018555,177.906586 
	C1243.328613,187.809738 1246.620239,197.302658 1250.143921,207.464920 
	C1267.053955,158.152481 1283.687744,109.645615 1300.332886,61.105568 
	C1310.821655,61.105568 1321.119629,61.105568 1331.708740,61.105568 
	C1331.708740,119.271103 1331.708740,177.332382 1331.708740,235.697052 
	C1324.417114,235.697052 1317.010864,235.697052 1309.244629,235.697052 
	C1309.244629,189.066116 1309.244629,142.321487 1309.244629,95.576866 
	C1308.971191,95.522476 1308.697754,95.468086 1308.424316,95.413689 
	C1292.151001,142.265579 1275.877808,189.117462 1259.593872,235.999954 
	C1253.308350,235.999954 1247.309570,235.831314 1241.327637,236.075577 
	C1238.593262,236.187241 1237.731323,234.949341 1236.969727,232.695053 
	C1230.711670,214.172882 1224.332397,195.691666 1218.038208,177.181610 
	C1208.560669,149.309586 1199.121948,121.424294 1189.176025,92.097641 
	C1189.176025,140.856186 1189.176025,188.131271 1189.176025,235.702652 
	C1181.405518,235.702652 1173.999634,235.702652 1166.295044,235.702652 
	C1166.295044,177.736557 1166.295044,119.675255 1166.295044,61.008854 
	C1177.259521,61.008854 1188.351685,60.928844 1199.437744,61.155994 
	C1200.355591,61.174801 1201.633911,63.137779 1202.067017,64.425415 
	C1214.435669,101.194328 1226.716675,137.992676 1239.016113,174.784836 
	C1239.320923,175.696426 1239.671021,176.592850 1240.018555,177.906586 
z"/>
<path fill="#000000" opacity="1.000000" stroke="none" 
	d="
M2258.775146,158.280777 
	C2271.879639,174.774963 2268.385010,202.973572 2255.939209,217.769684 
	C2247.556396,227.735321 2236.665283,232.336502 2224.553467,233.795349 
	C2211.510498,235.366348 2198.281006,235.647552 2185.120850,235.919800 
	C2168.973877,236.253830 2152.814453,235.995911 2136.660400,235.988800 
	C2136.334473,235.988647 2136.008545,235.925873 2135.341553,235.857162 
	C2135.341553,177.732681 2135.341553,119.575127 2135.341553,61.000000 
	C2147.647705,61.000000 2159.923584,61.000000 2172.199219,61.000000 
	C2183.357178,61.000000 2194.532715,60.610142 2205.667969,61.111305 
	C2216.478271,61.597832 2227.300293,62.814129 2236.966309,68.469002 
	C2248.358154,75.133217 2255.157959,84.906319 2258.099121,97.873169 
	C2262.340088,116.570335 2251.076904,135.142456 2236.114746,142.646698 
	C2244.924316,145.910797 2252.962891,150.168076 2258.775146,158.280777 
M2186.500000,214.000015 
	C2197.399170,213.666428 2208.395020,214.117142 2219.170898,212.786087 
	C2230.723145,211.359146 2239.024170,204.106155 2241.498047,192.720871 
	C2243.777588,182.230591 2242.424316,171.711411 2233.399170,163.936813 
	C2226.689697,158.157059 2218.427979,156.439362 2209.992676,156.100861 
	C2199.511963,155.680222 2189.001221,156.000000 2178.503418,156.000000 
	C2172.071777,156.000000 2165.640137,156.000000 2159.286621,156.000000 
	C2159.286621,175.643539 2159.286621,194.713104 2159.286621,214.000000 
	C2168.214111,214.000000 2176.856934,214.000000 2186.500000,214.000015 
M2229.559082,124.961288 
	C2238.341064,114.386932 2236.461670,97.187828 2226.481689,88.962822 
	C2220.746094,84.235855 2213.782471,83.412773 2206.944336,83.131691 
	C2195.307129,82.653358 2183.636475,83.000000 2171.979736,83.000000 
	C2167.716064,83.000000 2163.452393,83.000000 2159.281494,83.000000 
	C2159.281494,100.315010 2159.281494,117.044052 2159.281494,133.999466 
	C2175.524658,133.999466 2191.503174,134.417053 2207.443604,133.821152 
	C2215.271240,133.528549 2223.155518,131.677734 2229.559082,124.961288 
z"/>
<path fill="#000000" opacity="1.000000" stroke="none" 
	d="
M1625.250488,209.669830 
	C1601.339722,173.668350 1577.646851,137.970535 1553.342163,101.351006 
	C1553.342163,146.690628 1553.342163,190.993332 1553.342163,235.647736 
	C1545.519531,235.647736 1538.110107,235.647736 1530.349121,235.647736 
	C1530.349121,177.841202 1530.349121,119.775276 1530.349121,61.005817 
	C1537.812744,61.005817 1545.566162,60.879189 1553.306030,61.145428 
	C1554.437500,61.184349 1555.747192,62.933891 1556.565186,64.164017 
	C1572.087646,87.501839 1587.487061,110.921593 1603.041138,134.238083 
	C1616.193726,153.954453 1629.509644,173.561966 1642.772461,193.204697 
	C1642.905518,193.401688 1643.299805,193.422180 1643.957275,193.670456 
	C1643.957275,149.499908 1643.957275,105.475037 1643.957275,61.226078 
	C1652.077148,61.226078 1659.814941,61.226078 1667.777100,61.226078 
	C1667.777100,119.412514 1667.777100,177.477737 1667.777100,235.999603 
	C1660.225464,235.999603 1652.771484,236.171921 1645.338501,235.854706 
	C1643.845581,235.790970 1642.034546,234.147339 1641.048218,232.752655 
	C1635.737061,225.243027 1630.639648,217.582199 1625.250488,209.669830 
z"/>
<path fill="#000000" opacity="1.000000" stroke="none" 
	d="
M1828.000000,61.000000 
	C1838.162720,61.000000 1847.858521,60.504402 1857.478027,61.149841 
	C1865.843262,61.711140 1874.237183,63.064266 1882.414062,64.952110 
	C1897.098999,68.342552 1905.329468,78.907516 1909.901733,92.433960 
	C1914.177246,105.082253 1913.761719,117.766464 1908.006104,130.074188 
	C1901.828491,143.284698 1890.554199,149.923370 1877.300537,153.957809 
	C1873.763916,155.034317 1870.076172,155.614563 1866.495972,156.414093 
	C1870.892456,159.701187 1876.380005,162.396317 1879.889648,166.703308 
	C1888.874023,177.729233 1897.305542,189.248383 1905.339966,200.993210 
	C1912.946655,212.112732 1919.767578,223.769821 1927.436646,235.991226 
	C1917.377808,235.991226 1907.850586,236.080078 1898.329834,235.872208 
	C1897.213135,235.847824 1895.812256,234.394638 1895.082397,233.257614 
	C1885.000977,217.553894 1875.329346,201.576462 1864.887695,186.118332 
	C1858.385620,176.492462 1852.084961,166.290543 1840.693115,161.331726 
	C1838.224854,160.257339 1835.516602,159.157913 1832.897949,159.105011 
	C1821.104980,158.866745 1809.304443,159.001038 1797.118652,159.001038 
	C1797.118652,184.679993 1797.118652,210.080261 1797.118652,235.738922 
	C1788.995972,235.738922 1781.259644,235.738922 1773.260010,235.738922 
	C1773.260010,177.672409 1773.260010,119.617378 1773.260010,61.000000 
	C1791.317139,61.000000 1809.408569,61.000000 1828.000000,61.000000 
M1830.500000,81.000000 
	C1819.406982,81.000000 1808.313965,81.000000 1797.273926,81.000000 
	C1797.273926,100.295525 1797.273926,119.026398 1797.273926,138.953949 
	C1819.862793,137.960007 1842.162109,137.392059 1864.393188,135.841873 
	C1877.228516,134.946838 1887.911621,122.753731 1887.904907,109.911552 
	C1887.897705,96.130211 1880.386475,85.847466 1866.385010,83.292259 
	C1854.996460,81.213928 1843.145752,81.668610 1830.500000,81.000000 
z"/>
<path fill="#000000" opacity="1.000000" stroke="none" 
	d="
M685.000000,236.000000 
	C674.856873,236.000000 665.213806,236.000000 655.286133,236.000000 
	C655.286133,177.713974 655.286133,119.648102 655.286133,61.290894 
	C696.944397,61.290894 738.678772,61.290894 780.706909,61.290894 
	C780.706909,68.270454 780.706909,75.343880 780.706909,82.816132 
	C747.053772,82.816132 713.316895,82.816132 679.290771,82.816132 
	C679.290771,100.278610 679.290771,117.349472 679.290771,134.817932 
	C710.947815,134.817932 742.685059,134.817932 774.710266,134.817932 
	C774.710266,141.944107 774.710266,148.684113 774.710266,155.823242 
	C743.046875,155.823242 711.309631,155.823242 679.287109,155.823242 
	C679.287109,175.286285 679.287109,194.356766 679.287109,213.824173 
	C714.287842,213.824173 749.357910,213.824173 784.713135,213.824173 
	C784.713135,221.283569 784.713135,228.356750 784.713135,236.000000 
	C751.684631,236.000000 718.592346,236.000000 685.000000,236.000000 
z"/>
<path fill="#000000" opacity="1.000000" stroke="none" 
	d="
M1052.000000,154.000000 
	C1039.857300,154.000000 1028.214600,154.000000 1016.176575,154.000000 
	C1016.176575,181.286072 1016.176575,208.357269 1016.176575,235.713196 
	C1008.049133,235.713196 1000.309753,235.713196 992.283691,235.713196 
	C992.283691,177.709717 992.283691,119.644356 992.283691,61.289280 
	C999.945618,61.289280 1007.685120,61.289280 1015.824707,61.289280 
	C1015.824707,84.620125 1015.824707,108.025406 1015.824707,131.714172 
	C1045.621826,131.714172 1075.023926,131.714172 1104.824219,131.714172 
	C1104.824219,108.380379 1104.824219,84.975105 1104.824219,61.286079 
	C1112.952271,61.286079 1120.691650,61.286079 1128.717041,61.286079 
	C1128.717041,119.291740 1128.717041,177.357086 1128.717041,235.711426 
	C1121.052856,235.711426 1113.313354,235.711426 1105.174438,235.711426 
	C1105.174438,208.711716 1105.174438,181.640533 1105.174438,154.000000 
	C1087.356079,154.000000 1069.928101,154.000000 1052.000000,154.000000 
z"/>
<path fill="#000000" opacity="1.000000" stroke="none" 
	d="
M1386.017822,204.094574 
	C1382.183594,214.986206 1378.367188,225.472382 1374.577393,235.885284 
	C1365.981445,235.885284 1357.668701,235.885284 1348.750854,235.885284 
	C1352.887939,225.209702 1356.919312,214.834198 1360.930420,204.450836 
	C1368.949585,183.691544 1376.998535,162.943512 1384.959229,142.161774 
	C1393.720459,119.290894 1402.395630,96.386955 1411.120361,73.502068 
	C1411.234131,73.203583 1411.582031,72.994873 1411.697754,72.696564 
	C1413.138428,68.982285 1413.547119,63.651546 1416.244019,61.958084 
	C1419.391846,59.981541 1424.589111,61.554588 1428.797485,60.923004 
	C1437.963379,59.547421 1442.918945,62.208118 1446.343384,71.902344 
	C1453.908813,93.318665 1463.356689,114.068123 1471.973389,135.115509 
	C1479.374146,153.192749 1486.657715,171.317856 1494.047729,189.399490 
	C1500.334839,204.782181 1506.699829,220.133011 1513.155884,235.802643 
	C1503.666626,235.802643 1494.565796,235.802643 1485.413696,235.802643 
	C1479.111328,219.203720 1472.889282,202.580307 1466.373169,186.073044 
	C1465.813232,184.654587 1463.310303,183.144867 1461.696777,183.130234 
	C1440.208618,182.935364 1418.717407,183.086441 1397.228882,182.907913 
	C1393.964600,182.880798 1392.906738,184.555084 1392.033691,186.957230 
	C1390.010010,192.525681 1388.032104,198.110764 1386.017822,204.094574 
M1449.558594,141.043213 
	C1442.386841,121.885101 1435.215210,102.726990 1428.765747,85.498207 
	C1420.105469,110.004059 1410.808960,136.310303 1401.463867,162.753998 
	C1419.744629,162.753998 1438.284668,162.753998 1457.315308,162.753998 
	C1454.803101,155.568573 1452.385254,148.653046 1449.558594,141.043213 
z"/>
<path fill="#000000" opacity="1.000000" stroke="none" 
	d="
M551.000000,93.028351 
	C551.000000,89.553185 551.000000,86.572739 551.000000,83.195610 
	C531.734924,83.195610 512.661499,83.195610 493.295410,83.195610 
	C493.295410,75.734406 493.295410,68.660858 493.295410,61.292084 
	C539.275085,61.292084 585.342529,61.292084 631.705261,61.292084 
	C631.705261,68.267082 631.705261,75.340584 631.705261,82.815475 
	C613.057312,82.815475 594.317017,82.815475 575.186279,82.815475 
	C575.186279,133.945404 575.186279,184.680023 575.186279,235.706787 
	C567.062378,235.706787 559.322754,235.706787 551.000000,235.706787 
	C551.000000,188.366898 551.000000,140.944992 551.000000,93.028351 
z"/>
<path fill="#006080" opacity="1.000000" stroke="none" 
	d="
M329.500092,203.933914 
	C329.116577,197.639267 329.066681,191.281403 329.425293,184.397507 
	C330.371185,183.274658 331.094299,182.764374 331.418549,182.068283 
	C338.633484,166.579773 345.835938,151.085266 352.975403,135.561829 
	C361.152802,117.781517 369.232788,99.956215 377.478668,82.207863 
	C378.085999,80.900696 379.691376,80.057213 380.832733,78.998154 
	C380.880981,85.355942 380.929230,91.713715 380.905212,98.534912 
	C379.691589,100.057404 378.095093,100.901970 377.479126,102.208733 
	C371.325958,115.262672 365.301819,128.377914 359.306030,141.505463 
	C352.968414,155.381393 346.806732,169.338715 340.359131,183.162964 
	C337.088104,190.176300 333.356873,196.974991 329.500092,203.933914 
z"/>
<path fill="#005E78" opacity="1.000000" stroke="none" 
	d="
M380.905212,78.539917 
	C379.691376,80.057213 378.085999,80.900696 377.478668,82.207863 
	C369.232788,99.956215 361.152802,117.781517 352.975403,135.561829 
	C345.835938,151.085266 338.633484,166.579773 331.418549,182.068283 
	C331.094299,182.764374 330.371185,183.274658 329.500122,183.934235 
	C329.116455,180.300629 329.066437,176.604248 329.425110,172.389648 
	C330.528381,170.979156 331.416565,170.178314 331.887665,169.180511 
	C336.855743,158.657608 341.813354,148.128983 346.665710,137.552338 
	C357.057831,114.900749 367.364929,92.210136 377.792328,69.574883 
	C378.422821,68.206253 379.802124,67.182587 380.832947,65.998405 
	C380.881226,70.026161 380.929474,74.053917 380.905212,78.539917 
z"/>
<path fill="#005B70" opacity="1.000000" stroke="none" 
	d="
M380.905518,65.553040 
	C379.802124,67.182587 378.422821,68.206253 377.792328,69.574883 
	C367.364929,92.210136 357.057831,114.900749 346.665710,137.552338 
	C341.813354,148.128983 336.855743,158.657608 331.887665,169.180511 
	C331.416565,170.178314 330.528381,170.979156 329.500061,171.934082 
	C329.116119,169.293289 329.065918,166.589828 329.425232,163.378662 
	C330.897583,161.231888 332.172638,159.691620 332.989288,157.937897 
	C338.741455,145.585648 344.428009,133.202576 350.080383,120.804207 
	C358.212097,102.967392 366.217010,85.072121 374.468109,67.290909 
	C376.154053,63.657715 378.688934,60.418465 380.832520,56.997627 
	C380.881042,59.700977 380.929535,62.404324 380.905518,65.553040 
z"/>
<path fill="#005767" opacity="1.000000" stroke="none" 
	d="
M380.905182,56.558067 
	C378.688934,60.418465 376.154053,63.657715 374.468109,67.290909 
	C366.217010,85.072121 358.212097,102.967392 350.080383,120.804207 
	C344.428009,133.202576 338.741455,145.585648 332.989288,157.937897 
	C332.172638,159.691620 330.897583,161.231888 329.500488,162.933701 
	C329.115967,160.622665 329.065643,158.248917 329.424377,155.373413 
	C330.528015,153.979492 331.416412,153.178787 331.887482,152.181046 
	C336.855591,141.658096 341.813110,131.129379 346.665466,120.552666 
	C357.057587,97.900948 367.364807,75.210251 377.792236,52.574871 
	C378.422791,51.206154 379.801941,50.182289 380.832733,48.997955 
	C380.881104,51.371471 380.929474,53.744991 380.905182,56.558067 
z"/>
<path fill="#00545F" opacity="1.000000" stroke="none" 
	d="
M380.905792,48.573860 
	C379.801941,50.182289 378.422791,51.206154 377.792236,52.574871 
	C367.364807,75.210251 357.057587,97.900948 346.665466,120.552666 
	C341.813110,131.129379 336.855591,141.658096 331.887482,152.181046 
	C331.416412,153.178787 330.528015,153.979492 329.499542,154.934235 
	C329.105865,153.621140 329.046021,152.245499 329.254730,150.304962 
	C330.564911,148.065277 331.796631,146.478424 332.618469,144.701920 
	C340.213074,128.284714 347.766571,111.848282 355.272247,95.390182 
	C361.605408,81.503189 367.752136,67.529938 374.218445,53.705746 
	C375.984070,49.931046 378.604401,46.556133 380.832489,42.997749 
	C380.881287,44.715092 380.930054,46.432430 380.905792,48.573860 
z"/>
<path fill="#054D4E" opacity="1.000000" stroke="none" 
	d="
M328.166351,145.997314 
	C328.107727,144.633392 328.049103,143.269470 327.952026,141.495331 
	C328.157593,140.255997 328.401550,139.426880 329.148712,138.251831 
	C332.434998,131.604218 335.218109,125.302544 338.154785,118.688675 
	C340.873047,112.918320 343.437744,107.460159 346.327026,101.956909 
	C346.766541,100.940819 346.881439,99.969833 346.997864,98.625092 
	C347.001984,97.503838 347.004639,96.756332 347.304504,95.986404 
	C348.068604,95.643250 348.535522,95.322533 349.350281,94.948288 
	C350.796143,92.593536 351.894196,90.292313 352.992737,87.659241 
	C352.995453,86.884926 352.997742,86.442467 353.346252,85.947998 
	C355.795013,81.264000 357.897522,76.632011 360.000610,71.750473 
	C360.001221,71.500923 360.002441,71.001831 360.351440,70.947655 
	C362.395844,67.748131 364.265106,64.682663 365.754120,61.442471 
	C370.247925,51.663864 374.593933,41.817356 379.024536,31.687231 
	C379.403717,30.903025 379.755920,30.428904 380.108093,29.954782 
	C380.398529,32.025822 380.688995,34.096859 380.571869,36.646851 
	C379.104126,38.760582 377.828796,40.295589 377.017334,42.045689 
	C369.419281,58.432575 361.869019,74.841820 354.368896,91.273811 
	C348.040405,105.138832 341.892426,119.087105 335.461060,132.903824 
	C333.358276,137.421356 330.616119,141.641281 328.166351,145.997314 
z"/>
<path fill="#015158" opacity="1.000000" stroke="none" 
	d="
M328.091125,146.364655 
	C330.616119,141.641281 333.358276,137.421356 335.461060,132.903824 
	C341.892426,119.087105 348.040405,105.138832 354.368896,91.273811 
	C361.869019,74.841820 369.419281,58.432575 377.017334,42.045689 
	C377.828796,40.295589 379.104126,38.760582 380.498291,37.061005 
	C380.881470,38.714054 380.930603,40.431900 380.906128,42.573746 
	C378.604401,46.556133 375.984070,49.931046 374.218445,53.705746 
	C367.752136,67.529938 361.605408,81.503189 355.272247,95.390182 
	C347.766571,111.848282 340.213074,128.284714 332.618469,144.701920 
	C331.796631,146.478424 330.564911,148.065277 329.205475,149.893936 
	C328.597076,148.942520 328.306488,147.837265 328.091125,146.364655 
z"/>
<path fill="#0B433A" opacity="1.000000" stroke="none" 
	d="
M380.833649,19.013769 
	C380.884430,20.401007 380.935181,21.788248 380.576874,23.649960 
	C378.780151,26.751028 377.392517,29.377626 375.998352,32.379456 
	C375.326477,34.835304 374.661163,36.915932 373.658752,39.045525 
	C372.549408,40.397659 371.777130,41.700825 370.995544,43.378113 
	C369.989594,46.500450 368.992981,49.248669 367.659241,52.045761 
	C366.549713,53.397724 365.777313,54.700809 365.000946,56.355099 
	C364.332153,58.138351 363.667297,59.570396 362.669067,61.001656 
	C361.891266,61.001328 361.446869,61.001793 361.038391,60.640072 
	C362.049957,57.518764 363.025604,54.759636 364.246307,51.833187 
	C364.661346,51.110668 364.831268,50.555470 365.264038,49.795353 
	C365.685394,48.727974 365.843933,47.865513 366.273621,46.780121 
	C368.697327,41.038582 370.849884,35.519974 373.122009,29.734917 
	C373.825714,28.975672 374.409821,28.482876 375.241394,27.826756 
	C375.659241,27.109158 375.829620,26.554882 376.266724,25.789099 
	C377.021515,24.050770 377.509644,22.523949 378.104614,20.777842 
	C378.408905,20.284437 378.668701,20.096367 379.235321,19.900848 
	C379.931122,19.542826 380.382385,19.278299 380.833649,19.013769 
z"/>
<path fill="#0D3625" opacity="1.000000" stroke="none" 
	d="
M378.990784,19.994345 
	C378.668701,20.096367 378.408905,20.284437 377.746674,20.842899 
	C376.851868,22.416676 376.421814,23.706110 375.773682,25.104820 
	C375.283661,25.414671 375.098450,25.676600 374.833008,26.089643 
	C374.777313,26.456160 374.888672,26.732914 374.998108,27.254768 
	C374.996246,27.499866 374.993927,27.990070 374.993927,27.990074 
	C374.409821,28.482876 373.825714,28.975672 372.757477,29.734123 
	C371.546295,29.996981 370.819214,29.994183 370.092133,29.991385 
	C373.498566,20.833963 376.904968,11.676545 380.571320,2.289447 
	C380.562378,6.057721 380.293518,10.055676 379.987061,14.843855 
	C379.629944,17.087500 379.310364,18.540922 378.990784,19.994345 
z"/>
<path fill="#094741" opacity="1.000000" stroke="none" 
	d="
M376.004883,32.004223 
	C377.392517,29.377626 378.780151,26.751028 380.499756,24.060665 
	C380.557739,25.724215 380.283752,27.451530 380.058929,29.566814 
	C379.755920,30.428904 379.403717,30.903025 378.650452,31.688034 
	C377.501221,32.000687 376.753052,32.002453 376.004883,32.004223 
z"/>
<path fill="#0D3F33" opacity="1.000000" stroke="none" 
	d="
M379.235321,19.900848 
	C379.310364,18.540922 379.629944,17.087500 379.997192,15.261282 
	C380.357452,16.012571 380.670013,17.136656 380.908112,18.637257 
	C380.382385,19.278299 379.931122,19.542826 379.235321,19.900848 
z"/>
<path fill="#6EAC2B" opacity="1.000000" stroke="none" 
	d="
M172.117599,90.038666 
	C171.736267,93.082573 171.354935,96.126488 170.903381,99.583839 
	C148.916107,99.997856 126.999046,99.998428 104.624420,99.998138 
	C104.451393,96.610168 104.735939,93.223061 105.550972,89.417419 
	C125.322868,88.999466 144.564453,88.958679 163.805450,89.046814 
	C166.577621,89.059509 169.346954,89.692650 172.117599,90.038666 
z"/>
<path fill="#65A02C" opacity="1.000000" stroke="none" 
	d="
M172.456360,89.817734 
	C169.346954,89.692650 166.577621,89.059509 163.805450,89.046814 
	C144.564453,88.958679 125.322868,88.999466 105.623817,88.997406 
	C105.190956,86.774681 105.215744,84.553444 105.878159,82.428543 
	C108.311981,82.683151 110.107887,82.975166 111.904442,82.979225 
	C132.309616,83.025330 152.714905,83.027412 173.120163,83.041275 
	C173.011810,85.226448 172.903458,87.411629 172.456360,89.817734 
z"/>
<path fill="#5B942C" opacity="1.000000" stroke="none" 
	d="
M173.450684,82.838455 
	C152.714905,83.027412 132.309616,83.025330 111.904442,82.979225 
	C110.107887,82.975166 108.311981,82.683151 106.229538,82.211029 
	C105.968185,80.852646 105.993073,79.808098 106.549393,78.380920 
	C129.332458,77.996468 151.584091,77.994652 173.835739,77.992844 
	C173.817566,79.540443 173.799377,81.088043 173.450684,82.838455 
z"/>
<path fill="#43762A" opacity="1.000000" stroke="none" 
	d="
M175.119537,70.045685 
	C175.071396,71.100258 175.023239,72.154839 174.446167,73.602692 
	C151.333893,73.993919 128.750549,73.991875 106.167191,73.989830 
	C106.397911,72.875587 106.628632,71.761353 107.470909,70.321815 
	C130.428162,70.012909 152.773849,70.029297 175.119537,70.045685 
z"/>
<path fill="#4F862B" opacity="1.000000" stroke="none" 
	d="
M106.092545,74.385849 
	C128.750549,73.991875 151.333893,73.993919 174.374969,73.992790 
	C174.604980,75.104996 174.377258,76.220375 173.992645,77.664299 
	C151.584091,77.994652 129.332458,77.996468 106.623001,77.995972 
	C106.116089,76.923073 106.066994,75.852470 106.092545,74.385849 
z"/>
<path fill="#0E3618" opacity="1.000000" stroke="none" 
	d="
M107.881950,59.385704 
	C130.601486,59.012848 153.254059,58.955921 176.442719,59.167065 
	C177.021011,59.626274 177.063248,59.817413 177.065338,60.337833 
	C176.983643,61.107121 176.942108,61.547123 176.438171,61.990978 
	C153.040070,61.992741 130.104385,61.990654 107.168716,61.988564 
	C107.384140,61.226254 107.599571,60.463943 107.881950,59.385704 
z"/>
<path fill="#1A481F" opacity="1.000000" stroke="none" 
	d="
M107.090790,62.359203 
	C130.104385,61.990654 153.040070,61.992741 176.460388,62.258736 
	C176.932083,62.701195 176.919144,62.879745 176.906219,63.058296 
	C176.598053,63.500244 176.289902,63.942196 175.448578,64.689041 
	C152.333282,64.991714 129.751129,64.989502 107.168991,64.987297 
	C107.116951,64.234810 107.064911,63.482327 107.090790,62.359203 
z"/>
<path fill="#366527" opacity="1.000000" stroke="none" 
	d="
M175.430573,69.887848 
	C152.773849,70.029297 130.428162,70.012909 107.624641,69.993378 
	C107.115936,69.238472 107.065056,68.486710 107.546555,67.366989 
	C130.665070,66.997139 153.251221,66.995255 175.837372,66.993362 
	C175.805450,67.905579 175.773529,68.817802 175.430573,69.887848 
z"/>
<path fill="#295925" opacity="1.000000" stroke="none" 
	d="
M175.908447,66.661209 
	C153.251221,66.995255 130.665070,66.997139 107.620789,66.996155 
	C107.114731,66.545456 107.066818,66.097618 107.093948,65.318542 
	C129.751129,64.989502 152.333282,64.991714 175.373199,64.990570 
	C175.880493,65.434502 175.930008,65.881783 175.908447,66.661209 
z"/>
<path fill="#FFFFFF" opacity="1.000000" stroke="none" 
	d="
M2427.327148,182.203598 
	C2419.803223,200.577042 2406.608643,212.181335 2387.785645,216.533356 
	C2362.875977,222.292740 2336.907959,212.418335 2323.924561,187.818085 
	C2318.332520,177.223053 2315.946533,166.101151 2315.932373,154.204910 
	C2315.918213,142.220673 2316.012451,130.318146 2319.685059,118.734879 
	C2326.709961,96.581535 2341.921143,84.036934 2364.588379,79.968430 
	C2384.531006,76.388908 2401.627686,82.145653 2415.605225,96.311020 
	C2425.661377,106.502380 2430.177979,119.632576 2431.993896,133.694199 
	C2432.369385,136.601410 2432.822021,139.510681 2432.973389,142.432770 
	C2433.671387,155.924164 2432.300781,169.150620 2427.327148,182.203598 
z"/>
<path fill="#FFFFFF" opacity="1.000000" stroke="none" 
	d="
M2083.000000,148.999084 
	C2082.260254,165.466125 2080.237305,181.054688 2070.191406,194.416321 
	C2060.935303,206.727493 2049.288330,214.698608 2033.687988,217.148148 
	C2020.629517,219.198563 2008.372070,217.580643 1996.962036,211.354843 
	C1980.492188,202.368317 1970.640137,188.130890 1967.123169,169.818924 
	C1965.712769,162.475616 1964.902954,154.843094 1965.167725,147.390121 
	C1965.638306,134.142761 1966.964966,120.781143 1973.143555,108.763138 
	C1980.569946,94.318092 1992.805908,85.205994 2008.356323,81.103363 
	C2027.329712,76.097588 2044.925049,79.085266 2060.416016,91.871292 
	C2072.486328,101.833992 2078.513184,115.004959 2080.948975,130.055130 
	C2081.936768,136.159180 2082.333984,142.358765 2083.000000,148.999084 
z"/>
<path fill="#005868" opacity="1.000000" stroke="none" 
	d="
M177.105484,60.008545 
	C177.063248,59.817413 177.021011,59.626274 176.899750,59.152130 
	C179.986191,50.707016 183.151672,42.544907 186.967926,34.152020 
	C189.176010,32.077305 190.995941,30.394089 192.241394,28.359257 
	C195.964554,22.276360 199.462769,16.055769 203.048798,9.888937 
	C203.702682,11.335778 204.356567,12.782621 204.744720,14.744493 
	C204.122635,15.601628 203.656677,15.882384 203.425797,16.294754 
	C196.805969,28.118383 190.305817,40.010563 183.543182,51.751621 
	C181.818253,54.746399 179.273529,57.268997 177.105484,60.008545 
z"/>
<path fill="#01545D" opacity="1.000000" stroke="none" 
	d="
M203.026459,9.510730 
	C199.462769,16.055769 195.964554,22.276360 192.241394,28.359257 
	C190.995941,30.394089 189.176010,32.077305 187.260315,33.943336 
	C191.078873,23.400236 195.255814,12.835048 199.739014,2.062691 
	C201.031555,4.281188 202.017838,6.706854 203.026459,9.510730 
z"/>
<path fill="#006080" opacity="1.000000" stroke="none" 
	d="
M184.100159,86.795609 
	C182.658096,82.754845 181.362350,78.399925 180.500946,73.507576 
	C183.017059,69.848557 185.256104,66.819321 187.152695,63.589027 
	C194.510086,51.057766 201.758575,38.462555 209.047607,25.891153 
	C210.687531,29.675980 212.327469,33.460808 213.900162,37.622009 
	C210.979721,42.142700 207.850754,46.126575 205.327698,50.462990 
	C199.073776,61.211750 193.116638,72.132889 186.982162,82.951820 
	C186.255493,84.233406 185.167145,85.309891 184.100159,86.795609 
z"/>
<path fill="#00545F" opacity="1.000000" stroke="none" 
	d="
M301.115479,209.040176 
	C300.778137,209.822861 300.440796,210.605545 299.639893,211.633514 
	C298.063995,210.479004 296.829620,209.158707 295.857849,207.667313 
	C284.228943,189.819855 272.683624,171.917603 260.967224,154.127975 
	C259.840332,152.416931 257.712921,151.364853 256.049957,150.006882 
	C255.358673,147.566574 254.667374,145.126266 253.956421,142.290726 
	C254.083603,141.307053 254.230453,140.718613 254.810242,140.323303 
	C256.248810,141.625992 257.433075,142.620529 258.232819,143.862625 
	C267.670868,158.520630 276.966309,173.271118 286.483368,187.877335 
	C291.163483,195.060120 296.226013,201.993790 301.115479,209.040176 
z"/>
<path fill="#00525B" opacity="1.000000" stroke="none" 
	d="
M256.178802,150.338104 
	C257.712921,151.364853 259.840332,152.416931 260.967224,154.127975 
	C272.683624,171.917603 284.228943,189.819855 295.857849,207.667313 
	C296.829620,209.158707 298.063995,210.479004 299.504700,211.939453 
	C299.514984,213.187103 299.196930,214.374084 298.450653,215.368927 
	C286.933075,197.965225 275.882416,180.728455 264.696716,163.579742 
	C263.529114,161.789673 261.562195,160.520966 259.966125,159.010376 
	C258.746643,156.230026 257.527130,153.449661 256.178802,150.338104 
z"/>
<path fill="#015158" opacity="1.000000" stroke="none" 
	d="
M259.983582,159.389191 
	C261.562195,160.520966 263.529114,161.789673 264.696716,163.579742 
	C275.882416,180.728455 286.933075,197.965225 298.117371,215.571564 
	C298.212311,215.966354 298.171051,215.962585 297.805634,215.951431 
	C296.595001,215.226883 295.516541,214.665039 294.939728,213.777267 
	C286.655182,201.026932 278.517029,188.180634 270.136658,175.494141 
	C268.515656,173.040192 266.011566,171.169571 263.914825,169.029877 
	C262.610229,165.942581 261.305634,162.855286 259.983582,159.389191 
z"/>
<path fill="#0A453E" opacity="1.000000" stroke="none" 
	d="
M293.909058,227.309296 
	C292.832672,230.483414 291.756256,233.657532 290.339294,237.036713 
	C287.345062,231.053848 284.654297,224.881439 282.055359,218.670609 
	C280.968018,216.072067 280.075592,213.391953 279.418060,210.413513 
	C281.957367,212.649704 284.224243,215.179428 286.375671,217.803772 
	C288.938507,220.929886 291.402344,224.137177 293.909058,227.309296 
z"/>
<path fill="#084A47" opacity="1.000000" stroke="none" 
	d="
M294.184021,227.154846 
	C291.402344,224.137177 288.938507,220.929886 286.375671,217.803772 
	C284.224243,215.179428 281.957367,212.649704 279.400208,210.044281 
	C277.386292,205.593399 275.713745,201.176315 274.342346,196.414062 
	C276.384338,197.955215 278.357849,199.677536 279.824127,201.757462 
	C285.014313,209.119797 290.031128,216.604355 295.113647,224.042587 
	C294.895447,225.028519 294.677216,226.014450 294.184021,227.154846 
z"/>
<path fill="#034F54" opacity="1.000000" stroke="none" 
	d="
M263.944794,169.401794 
	C266.011566,171.169571 268.515656,173.040192 270.136658,175.494141 
	C278.517029,188.180634 286.655182,201.026932 294.939728,213.777267 
	C295.516541,214.665039 296.595001,215.226883 297.800659,215.971313 
	C298.020844,216.917877 297.880585,217.833420 297.110016,218.751190 
	C295.532440,217.620422 294.457947,216.570267 293.657745,215.341476 
	C286.241943,203.953781 278.926178,192.500443 271.433044,181.164185 
	C270.338409,179.508133 268.463837,178.367645 266.950134,176.988586 
	C265.958344,174.583618 264.966553,172.178665 263.944794,169.401794 
z"/>
<path fill="#064C4C" opacity="1.000000" stroke="none" 
	d="
M295.394226,223.936646 
	C290.031128,216.604355 285.014313,209.119797 279.824127,201.757462 
	C278.357849,199.677536 276.384338,197.955215 274.286926,196.039673 
	C272.610687,192.602066 271.291016,189.193680 270.294983,185.439545 
	C272.759766,187.767166 275.105286,190.303619 277.004944,193.138794 
	C283.437256,202.738647 289.711639,212.444290 296.046417,222.109497 
	C295.922577,222.683243 295.798706,223.256973 295.394226,223.936646 
z"/>
<path fill="#054D4E" opacity="1.000000" stroke="none" 
	d="
M296.365601,221.958344 
	C289.711639,212.444290 283.437256,202.738647 277.004944,193.138794 
	C275.105286,190.303619 272.759766,187.767166 270.270630,185.054306 
	C268.943237,182.592896 267.963806,180.170990 266.967255,177.368835 
	C268.463837,178.367645 270.338409,179.508133 271.433044,181.164185 
	C278.926178,192.500443 286.241943,203.953781 293.657745,215.341476 
	C294.457947,216.570267 295.532440,217.620422 296.793243,218.900482 
	C296.966125,219.967422 296.825470,220.887314 296.365601,221.958344 
z"/>
<path fill="#006081" opacity="1.000000" stroke="none" 
	d="
M319.504883,159.939667 
	C317.532104,166.436722 315.231110,172.872345 312.510925,179.216171 
	C300.633087,161.245697 289.267578,143.306259 277.664246,125.521980 
	C273.712860,119.465797 269.162933,113.800156 264.886505,107.956070 
	C266.662659,101.747841 268.438812,95.539619 270.547211,89.146957 
	C272.491425,90.468590 274.487640,91.724388 275.656738,93.519005 
	C289.121185,114.187386 302.451080,134.943390 315.851624,155.653519 
	C316.821014,157.151672 318.061951,158.474106 319.504883,159.939667 
z"/>
<path fill="#0B433A" opacity="1.000000" stroke="none" 
	d="
M353.000000,86.000000 
	C352.997742,86.442467 352.995453,86.884926 352.677307,87.801155 
	C351.238922,90.181694 350.116394,92.088463 348.673218,94.038216 
	C347.904114,94.723747 347.455719,95.366295 347.007294,96.008835 
	C347.004639,96.756332 347.001984,97.503838 346.778290,98.732025 
	C346.283966,99.411713 346.095795,99.672165 345.626770,99.995392 
	C344.530853,99.994766 343.800812,99.992821 343.070801,99.990883 
	C346.348663,91.561195 349.626495,83.131508 353.354309,74.349670 
	C354.536621,73.998650 355.268921,73.999779 356.001007,74.402039 
	C355.000519,78.535446 354.000244,82.267723 353.000000,86.000000 
z"/>
<path fill="#0D3F33" opacity="1.000000" stroke="none" 
	d="
M356.001221,74.000916 
	C355.268921,73.999779 354.536621,73.998650 353.439667,73.994308 
	C355.753571,67.116486 358.432129,60.241871 361.689667,53.089569 
	C362.846161,52.541431 363.423706,52.270977 364.001221,52.000519 
	C363.025604,54.759636 362.049957,57.518764 360.998535,61.011211 
	C359.945801,65.494789 358.968872,69.245049 357.694885,73.016586 
	C356.932281,73.358871 356.466766,73.679893 356.001221,74.000916 
z"/>
<path fill="#094741" opacity="1.000000" stroke="none" 
	d="
M342.987366,100.347534 
	C343.800812,99.992821 344.530853,99.994766 345.629333,100.330109 
	C345.999359,101.109680 346.000885,101.555847 346.002441,102.001999 
	C343.437744,107.460159 340.873047,112.918320 337.879181,118.803604 
	C336.906982,119.482491 336.363983,119.734261 335.820984,119.986023 
	C338.181976,113.558739 340.542969,107.131462 342.987366,100.347534 
z"/>
<path fill="#0E3B2C" opacity="1.000000" stroke="none" 
	d="
M369.990417,30.341339 
	C370.819214,29.994183 371.546295,29.996981 372.637878,30.000572 
	C370.849884,35.519974 368.697327,41.038582 365.915649,46.779091 
	C364.573730,46.995964 363.860992,46.990940 363.148224,46.985916 
	C365.395050,41.554379 367.641907,36.122837 369.990417,30.341339 
z"/>
<path fill="#084A47" opacity="1.000000" stroke="none" 
	d="
M335.566772,120.207352 
	C336.363983,119.734261 336.906982,119.482491 337.725586,119.115799 
	C335.218109,125.302544 332.434998,131.604218 329.298920,137.960480 
	C331.068146,132.152939 333.190338,126.290817 335.566772,120.207352 
z"/>
<path fill="#0D3F33" opacity="1.000000" stroke="none" 
	d="
M363.091339,47.316734 
	C363.860992,46.990940 364.573730,46.995964 365.644470,47.002022 
	C365.843933,47.865513 365.685394,48.727974 365.000916,49.686459 
	C363.971436,49.517414 363.467926,49.252346 362.964417,48.987282 
	C362.987762,48.540707 363.011108,48.094131 363.091339,47.316734 
z"/>
<path fill="#0E3B2C" opacity="1.000000" stroke="none" 
	d="
M362.794189,49.290863 
	C363.467926,49.252346 363.971436,49.517414 364.738098,49.891376 
	C364.831268,50.555470 364.661346,51.110668 364.246307,51.833191 
	C363.423706,52.270977 362.846161,52.541431 361.944092,52.857887 
	C361.954407,51.800743 362.289185,50.697594 362.794189,49.290863 
z"/>
<path fill="#005E7A" opacity="1.000000" stroke="none" 
	d="
M264.551331,108.141922 
	C269.162933,113.800156 273.712860,119.465797 277.664246,125.521980 
	C289.267578,143.306259 300.633087,161.245697 312.234497,179.502380 
	C311.259430,182.837799 310.141602,185.795212 308.557312,188.919952 
	C307.054047,188.040390 305.792603,187.137772 305.013977,185.925110 
	C292.647430,166.665344 280.393555,147.333038 267.970154,128.110229 
	C266.070038,125.170204 263.452240,122.694023 261.166351,120.003311 
	C262.182953,116.111465 263.199524,112.219627 264.551331,108.141922 
z"/>
<path fill="#005B73" opacity="1.000000" stroke="none" 
	d="
M260.993591,120.355835 
	C263.452240,122.694023 266.070038,125.170204 267.970154,128.110229 
	C280.393555,147.333038 292.647430,166.665344 305.013977,185.925110 
	C305.792603,187.137772 307.054047,188.040390 308.461121,189.255463 
	C307.809753,192.186523 306.788147,194.949387 305.125183,197.729599 
	C290.524719,176.230637 276.591187,154.697571 262.557007,133.230286 
	C261.452026,131.540115 259.646515,130.307907 258.166595,128.862854 
	C259.051331,126.144691 259.936066,123.426521 260.993591,120.355835 
z"/>
<path fill="#00596B" opacity="1.000000" stroke="none" 
	d="
M258.091431,129.193909 
	C259.646515,130.307907 261.452026,131.540115 262.557007,133.230286 
	C276.591187,154.697571 290.524719,176.230637 304.796295,197.897125 
	C304.453796,199.811447 303.798859,201.575592 302.660187,203.609421 
	C301.516663,203.164703 300.735077,202.529022 300.214996,201.724319 
	C288.519958,183.629242 276.923126,165.470154 265.128540,147.440369 
	C262.486633,143.401871 259.171204,139.804001 256.165863,136.003250 
	C256.782654,133.843826 257.399445,131.684387 258.091431,129.193909 
z"/>
<path fill="#005664" opacity="1.000000" stroke="none" 
	d="
M256.018127,136.325455 
	C259.171204,139.804001 262.486633,143.401871 265.128540,147.440369 
	C276.923126,165.470154 288.519958,183.629242 300.214996,201.724319 
	C300.735077,202.529022 301.516663,203.164703 302.504761,203.940063 
	C302.475647,205.573944 302.118286,207.146851 301.438202,208.879974 
	C296.226013,201.993790 291.163483,195.060120 286.483368,187.877335 
	C276.966309,173.271118 267.670868,158.520630 258.232819,143.862625 
	C257.433075,142.620529 256.248810,141.625992 255.097626,140.204437 
	C255.258163,138.810852 255.564270,137.729248 256.018127,136.325455 
z"/>
<path fill="#005E79" opacity="1.000000" stroke="none" 
	d="
M209.025345,25.519516 
	C201.758575,38.462555 194.510086,51.057766 187.152695,63.589027 
	C185.256104,66.819321 183.017059,69.848557 180.551025,73.070007 
	C179.452560,71.021912 178.738373,68.873962 178.435211,66.316132 
	C179.560089,65.273636 180.502930,64.772247 180.952347,63.988071 
	C185.458084,56.126316 189.756180,48.143234 194.368149,40.345367 
	C198.446945,33.448986 202.849854,26.744297 207.109680,19.954979 
	C207.740814,21.685947 208.371948,23.416914 209.025345,25.519516 
z"/>
<path fill="#005B70" opacity="1.000000" stroke="none" 
	d="
M207.056229,19.598679 
	C202.849854,26.744297 198.446945,33.448986 194.368149,40.345367 
	C189.756180,48.143234 185.458084,56.126316 180.952347,63.988071 
	C180.502930,64.772247 179.560089,65.273636 178.506165,65.951813 
	C177.829514,65.222755 177.492966,64.448143 177.031311,63.365913 
	C176.919144,62.879745 176.932083,62.701195 176.922791,62.254883 
	C176.942108,61.547123 176.983643,61.107121 177.065338,60.337830 
	C179.273529,57.268997 181.818253,54.746399 183.543182,51.751621 
	C190.305817,40.010563 196.805969,28.118383 203.425797,16.294754 
	C203.656677,15.882384 204.122635,15.601628 204.795258,15.107582 
	C205.741928,16.384554 206.372345,17.813465 207.056229,19.598679 
z"/>
<path fill="#FFFFFF" opacity="1.000000" stroke="none" 
	d="
M2186.000000,214.000000 
	C2176.856934,214.000000 2168.214111,214.000000 2159.286621,214.000000 
	C2159.286621,194.713104 2159.286621,175.643539 2159.286621,156.000000 
	C2165.640137,156.000000 2172.071777,156.000000 2178.503418,156.000000 
	C2189.001221,156.000000 2199.511963,155.680222 2209.992676,156.100861 
	C2218.427979,156.439362 2226.689697,158.157059 2233.399170,163.936813 
	C2242.424316,171.711411 2243.777588,182.230591 2241.498047,192.720871 
	C2239.024170,204.106155 2230.723145,211.359146 2219.170898,212.786087 
	C2208.395020,214.117142 2197.399170,213.666428 2186.000000,214.000000 
z"/>
<path fill="#FFFFFF" opacity="1.000000" stroke="none" 
	d="
M2229.287109,125.218246 
	C2223.155518,131.677734 2215.271240,133.528549 2207.443604,133.821152 
	C2191.503174,134.417053 2175.524658,133.999466 2159.281494,133.999466 
	C2159.281494,117.044052 2159.281494,100.315010 2159.281494,83.000000 
	C2163.452393,83.000000 2167.716064,83.000000 2171.979736,83.000000 
	C2183.636475,83.000000 2195.307129,82.653358 2206.944336,83.131691 
	C2213.782471,83.412773 2220.746094,84.235855 2226.481689,88.962822 
	C2236.461670,97.187828 2238.341064,114.386932 2229.287109,125.218246 
z"/>
<path fill="#FFFFFF" opacity="1.000000" stroke="none" 
	d="
M1831.000000,81.000000 
	C1843.145752,81.668610 1854.996460,81.213928 1866.385010,83.292259 
	C1880.386475,85.847466 1887.897705,96.130211 1887.904907,109.911552 
	C1887.911621,122.753731 1877.228516,134.946838 1864.393188,135.841873 
	C1842.162109,137.392059 1819.862793,137.960007 1797.273926,138.953949 
	C1797.273926,119.026398 1797.273926,100.295525 1797.273926,81.000000 
	C1808.313965,81.000000 1819.406982,81.000000 1831.000000,81.000000 
z"/>
<path fill="#FFFFFF" opacity="1.000000" stroke="none" 
	d="
M1449.762939,141.390381 
	C1452.385254,148.653046 1454.803101,155.568573 1457.315308,162.753998 
	C1438.284668,162.753998 1419.744629,162.753998 1401.463867,162.753998 
	C1410.808960,136.310303 1420.105469,110.004059 1428.765747,85.498207 
	C1435.215210,102.726990 1442.386841,121.885101 1449.762939,141.390381 
z"/>
<path fill="#074A49" opacity="1.000000" stroke="none" 
	d="
M375.998352,32.379448 
	C376.753052,32.002453 377.501221,32.000687 378.623474,31.998119 
	C374.593933,41.817356 370.247925,51.663864 365.754120,61.442471 
	C364.265106,64.682663 362.395844,67.748131 360.388367,70.582031 
	C361.051666,67.181213 362.027039,64.091827 363.002441,61.002441 
	C363.667297,59.570396 364.332153,58.138351 365.337830,56.305977 
	C366.451233,54.602730 367.223785,53.299812 367.996338,51.996887 
	C368.992981,49.248669 369.989594,46.500450 371.332458,43.328941 
	C372.451080,41.602619 373.223450,40.299591 373.995819,38.996559 
	C374.661163,36.915932 375.326477,34.835304 375.998352,32.379448 
z"/>
<path fill="#074A49" opacity="1.000000" stroke="none" 
	d="
M356.001007,74.402039 
	C356.466766,73.679893 356.932281,73.358871 357.955841,72.912308 
	C359.009247,72.524506 359.504608,72.262260 360.000000,72.000015 
	C357.897522,76.632011 355.795013,81.264000 353.346252,85.947998 
	C354.000244,82.267723 355.000519,78.535446 356.001007,74.402039 
z"/>
<path fill="#094741" opacity="1.000000" stroke="none" 
	d="
M360.000610,71.750473 
	C359.504608,72.262260 359.009247,72.524506 358.252869,72.891029 
	C358.968872,69.245049 359.945801,65.494789 360.962585,61.373394 
	C361.446869,61.001793 361.891266,61.001328 362.669067,61.001652 
	C362.027039,64.091827 361.051666,67.181213 360.039368,70.636215 
	C360.002441,71.001831 360.001221,71.500923 360.000610,71.750473 
z"/>
<path fill="#074A49" opacity="1.000000" stroke="none" 
	d="
M348.993896,93.995232 
	C350.116394,92.088463 351.238922,90.181694 352.676819,88.132996 
	C351.894196,90.292313 350.796143,92.593536 349.348450,94.696625 
	C348.997162,94.330742 348.995514,94.162987 348.993896,93.995232 
z"/>
<path fill="#074A49" opacity="1.000000" stroke="none" 
	d="
M346.327026,101.956909 
	C346.000885,101.555847 345.999359,101.109680 345.995239,100.328804 
	C346.095795,99.672165 346.283966,99.411713 346.776794,99.105782 
	C346.881439,99.969833 346.766541,100.940819 346.327026,101.956909 
z"/>
<path fill="#094741" opacity="1.000000" stroke="none" 
	d="
M348.673218,94.038216 
	C348.995514,94.162987 348.997162,94.330742 349.000610,94.750153 
	C348.535522,95.322533 348.068604,95.643250 347.304504,95.986404 
	C347.455719,95.366295 347.904114,94.723747 348.673218,94.038216 
z"/>
<path fill="#094741" opacity="1.000000" stroke="none" 
	d="
M373.658752,39.045525 
	C373.223450,40.299591 372.451080,41.602619 371.341797,42.954823 
	C371.777130,41.700825 372.549408,40.397659 373.658752,39.045525 
z"/>
<path fill="#094741" opacity="1.000000" stroke="none" 
	d="
M367.659241,52.045765 
	C367.223785,53.299812 366.451233,54.602730 365.341797,55.954773 
	C365.777313,54.700809 366.549713,53.397724 367.659241,52.045765 
z"/>
<path fill="#0D3F33" opacity="1.000000" stroke="none" 
	d="
M375.991760,24.995544 
	C376.421814,23.706110 376.851868,22.416676 377.639832,21.062185 
	C377.509644,22.523949 377.021515,24.050770 376.265350,25.537823 
	C375.995422,25.330551 375.993591,25.163046 375.991760,24.995544 
z"/>
<path fill="#0E3B2C" opacity="1.000000" stroke="none" 
	d="
M375.773682,25.104820 
	C375.993591,25.163046 375.995422,25.330551 375.998657,25.749332 
	C375.829620,26.554882 375.659241,27.109158 375.241394,27.826752 
	C374.993927,27.990070 374.996246,27.499866 374.997406,27.002260 
	C374.999054,26.336397 374.999542,26.168139 375.000000,25.999882 
	C375.098450,25.676600 375.283661,25.414671 375.773682,25.104820 
z"/>
<path fill="#0B433A" opacity="1.000000" stroke="none" 
	d="
M374.833008,26.089643 
	C374.999542,26.168139 374.999054,26.336397 374.999268,26.757160 
	C374.888672,26.732914 374.777313,26.456160 374.833008,26.089643 
z"/>
</svg>